# xmcd
#
# Track frame offsets: 
#        150
#        13275
#        27467
#        40920
#        56015
#        68537
#        82895
#        96495
#        109857
#        124107
#        138350
#        151582
#        165300
#        176777
#        189630
#        202300
#        214232
#        227367
#        239040
#
# Disc length: 3459 seconds
#
# Revision: 7
# Processed by: cddbd v1.5.2PL0 Copyright (c) Steve Scherf et al.
# Submitted via: ExactAudioCopy v0.99pb5
#
DISCID=0b0d8113
DTITLE=Various Artist - TheSlideGuitar: Bottles,Knives and Steel
DYEAR=1998
DGENRE=Blues
TTITLE0=Weaver and Beasley - Bottleneck Blues
TTITLE1=Barbecue Bob - (Untitled)
TTITLE2=Blind Willie Johnson - God Don't Never Change
TTITLE3=Blind Willie Johnson - Dark Was The Night (Cold Was The Ground
TTITLE3=)
TTITLE4=Weaver and Beasley - St. Louis Blues
TTITLE5=Ruth Willis and Blind Willie McTell - Experience Blues
TTITLE6=Sylvester Weaver - Guitar Rag
TTITLE7=Tampa Red - You Can't Get That Stuff No More
TTITLE8=Charlie Patton - High Sheriff Blues
TTITLE9=Blind Boy Fuller - Homesick and Lonesome Blues
TTITLE10=Leadbelly - Packin' Trunk Blues
TTITLE11=Casey Bill Weldon - I Beleive I'll Make A Change
TTITLE12=Buddy Woods - Don't Sell It (Don't Give It Away)
TTITLE13=Buddy Woods - Muscat Hill Blues
TTITLE14=Robert Johnson - Travelling Riverside Blues
TTITLE15=Bukka White - Bukka's Jitterbug Swing
TTITLE16=Bukka White - Special Stream Line
TTITLE17=Sister O. M. Terrell  - Swing Low, Chariot
TTITLE18=Son House - Pearline
EXTD=YEAR: 1990
EXTT0=(Weaver and Beasley]\nSylvester Weaver and Walter Beasley, guitar du
EXTT0=et\nSunday, 27 November, 1927
EXTT1=Barbecue Bob, vocal - accompanied by own guitar\nSunday, 3 Novemb
EXTT1=er, 1929
EXTT2=Blind Willie Johnson, vocal - accompanied by own guitar\nTuesday 
EXTT2=10 December, 1929
EXTT3=Blind Willie Johnson, humming and moaning - accompanied by own guit
EXTT3=ar\nSaturday, 3 December, 1927
EXTT4=(Weaver and Beasley]\nSylvester Weaver and Walter Beasley, guitar du
EXTT4=et\nSunday, 27 November, 1927
EXTT5=Ruth Mary Willis, vocal - accompanied by \nBlind Willie McTell, g
EXTT5=uitar and speech\nFriday, 23 October, 1931
EXTT6=(S. Martin/S. Weaver]\nSylvester Weaver, guitar solo\nWednesday,
EXTT6=13 April, 1927
EXTT7=(S. Heard]\nTampa Red, vocal and guitar\nThomas A. Dorsey (Georg
EXTT7=ia Tom), piano\nThursday, 4 February, 1932
EXTT8=Charley Patton, vocal - accompanied by own guitar\nTuesday, 30 Ja
EXTT8=unuary, 1934
EXTT9=Blind Boy Fuller, vocal - accompanied by own guitar\nFriday, 26 J
EXTT9=uly, 1935
EXTT10=Huddie Ledbetter (Leadbelly), vocal - accompanied by own guitar\n
EXTT10=Wednesday, 23 January, 1935
EXTT11=(Weldon]\nCasey Bill Weldon, vocal - accompanied by own steel gu
EXTT11=itar - probably Black Bob, piano;\npossibly Charlie McCoy, mando
EXTT11=lin, probably Big Bill Broonzy, guitar\nThursday, 3 September, 
EXTT11=1936
EXTT12=(B. Woods/J. Davis]\nBuddy Woods, vocal - accompanied by own gui
EXTT12=tar - unknown, 2nd guitar - unknown, piano - unknown, string bass\n
EXTT12=Saturday, 30 October, 1937
EXTT13=(B. Woods/J. Davis]\nBuddy Woods, vocal - accompanied by own gui
EXTT13=tar - unknown, 2nd guitar - unknown, piano - unknown, string bass\n
EXTT13=Saturday, 30 October, 1937
EXTT14=Robert Johnson, vocal - accompanied by own guitar\nSunday 20 Jun
EXTT14=e, 1937
EXTT15=(B. White]\nBukka White, vocal - accompanied by own guitar\nFrid
EXTT15=ay, 8 March, 1940
EXTT16=(B. White]\nBukka White, vocal - accompanied by own guitar\nFrid
EXTT16=ay, 8 March, 1940
EXTT17=(Traditional]\nSister O.M. Terrell, vocal - accompanied by own g
EXTT17=uitar - unknown, guitar and bass\nThursday, 19 February, 1953
EXTT18=Son House, vocal - accompanied by own guitar - unknown, guitar an
EXTT18=d bass\nWednesday, 14 April, 1965
PLAYORDER=
